<?xml version="1.0" standalone="no"?>
<!DOCTYPE svg PUBLIC "-//W3C//DTD SVG 20010904//EN"
 "http://www.w3.org/TR/2001/REC-SVG-20010904/DTD/svg10.dtd">
<svg version="1.0" xmlns="http://www.w3.org/2000/svg"
 width="225.000000pt" height="225.000000pt" viewBox="0 0 225.000000 225.000000"
 preserveAspectRatio="xMidYMid meet">
<metadata>
Created by potrace 1.11, written by Peter Selinger 2001-2013
</metadata>
<g transform="translate(0.000000,225.000000) scale(0.100000,-0.100000)"
fill="#000000" stroke="none">
<path d="M759 1677 c-29 -16 -54 -40 -74 -72 -27 -43 -30 -57 -30 -129 0 -72
-2 -83 -23 -99 -46 -38 -70 -121 -52 -186 21 -78 101 -140 181 -141 30 0 39
-6 60 -37 68 -106 256 -109 322 -7 20 32 25 34 60 28 65 -10 114 4 159 47 38
36 46 39 98 39 122 0 220 107 220 239 -1 157 -151 274 -299 231 -30 -8 -35 -7
-59 22 -65 78 -199 89 -273 23 -14 -14 -18 -13 -35 6 -56 62 -174 78 -255 36z
m191 -317 c0 -40 -4 -70 -10 -70 -6 0 -10 30 -10 70 0 40 4 70 10 70 6 0 10
-30 10 -70z m275 58 c-30 -16 -31 -18 -15 -29 13 -8 13 -11 -2 -20 -10 -5 -18
-20 -18 -33 0 -58 -34 -107 -63 -89 -6 4 -2 9 10 14 23 8 40 73 28 109 -3 11
-2 20 4 20 5 0 13 9 16 20 4 14 15 20 33 20 25 -1 26 -1 7 -12z m-420 -38 c4
-6 -5 -10 -19 -10 -34 0 -33 -16 0 -24 19 -5 25 -12 22 -29 -2 -17 -11 -23
-35 -25 -20 -2 -33 1 -33 8 0 7 8 9 19 5 30 -9 35 13 7 27 -25 11 -34 37 -19
51 10 11 51 8 58 -3z m92 -2 c6 -7 9 -29 9 -48 -1 -33 -3 -35 -37 -38 -26 -2
-38 2 -42 12 -10 25 3 46 29 46 13 0 24 5 24 10 0 6 -11 10 -25 10 -14 0 -25
5 -25 10 0 14 56 12 67 -2z m141 0 c7 -7 12 -20 12 -30 0 -13 -8 -18 -30 -18
-16 0 -30 -4 -30 -9 0 -13 27 -21 45 -15 8 4 15 1 15 -6 0 -7 -14 -10 -37 -8
-30 2 -38 8 -44 30 -13 48 37 88 69 56z m97 3 c3 -5 -7 -11 -22 -13 l-28 -4
28 -14 c40 -20 34 -54 -10 -58 -20 -2 -33 1 -33 8 0 8 9 10 25 6 18 -5 25 -2
25 8 0 7 -11 17 -25 20 -24 6 -34 34 -18 49 10 10 51 8 58 -2z m170 -15 c24
-35 5 -76 -34 -76 -46 0 -68 52 -35 84 22 23 51 20 69 -8z m85 13 c0 -5 -7 -9
-15 -9 -8 0 -16 -6 -17 -12 0 -7 -2 -17 -3 -23 -2 -5 -3 -18 -4 -27 0 -10 -5
-18 -11 -18 -5 0 -10 22 -10 48 0 47 1 49 30 50 17 0 30 -4 30 -9z m80 2 c0
-5 -10 -11 -22 -13 -17 -2 -24 -11 -26 -30 -3 -24 0 -28 22 -28 14 0 26 -4 26
-10 0 -11 -30 -13 -54 -4 -19 7 -22 64 -4 82 14 14 58 16 58 3z m88 -3 c7 -7
12 -20 12 -30 0 -14 -8 -18 -37 -18 -35 -1 -36 -2 -20 -15 11 -7 25 -11 33 -8
8 3 14 0 14 -6 0 -15 -53 -14 -68 1 -7 7 -12 24 -12 38 0 31 17 50 45 50 12 0
26 -5 33 -12z"/>
<path d="M845 1330 c-8 -13 3 -30 20 -30 14 0 27 24 18 34 -10 9 -31 7 -38 -4z"/>
<path d="M990 1360 c0 -5 9 -10 20 -10 11 0 20 5 20 10 0 6 -9 10 -20 10 -11
0 -20 -4 -20 -10z"/>
<path d="M1252 1338 c2 -21 8 -33 18 -33 10 0 16 12 18 33 3 27 0 32 -18 32
-18 0 -21 -5 -18 -32z"/>
<path d="M1505 1360 c-4 -6 5 -10 20 -10 15 0 24 4 20 10 -3 6 -12 10 -20 10
-8 0 -17 -4 -20 -10z"/>
<path d="M1036 812 c-3 -6 -1 -14 5 -17 15 -10 25 3 12 16 -7 7 -13 7 -17 1z"/>
<path d="M650 710 c0 -60 4 -100 10 -100 6 0 10 9 10 19 0 11 3 27 7 37 5 15
11 12 38 -21 18 -21 37 -36 44 -34 7 3 0 18 -18 39 -17 19 -30 38 -31 42 0 4
12 19 27 33 20 18 23 25 12 25 -8 0 -26 -11 -39 -25 -30 -32 -40 -24 -40 36 0
27 -4 49 -10 49 -6 0 -10 -40 -10 -100z"/>
<path d="M1602 716 c4 -125 23 -128 23 -4 0 66 -4 93 -13 96 -10 3 -12 -17
-10 -92z"/>
<path d="M2080 775 c0 -32 -2 -35 -19 -25 -29 15 -45 12 -69 -10 -28 -26 -30
-90 -4 -113 22 -20 63 -22 80 -5 9 9 12 9 12 0 0 -7 5 -12 10 -12 6 0 10 40
10 100 0 60 -4 100 -10 100 -5 0 -10 -16 -10 -35z m-19 -45 c22 -12 27 -68 7
-88 -46 -46 -105 32 -61 80 19 21 27 22 54 8z"/>
<path d="M950 775 c0 -9 -7 -18 -16 -22 -15 -5 -15 -7 0 -15 12 -7 16 -24 16
-64 0 -57 10 -71 47 -61 16 4 15 6 -4 12 -20 6 -23 14 -23 56 0 42 3 51 23 59
l22 9 -22 0 c-16 1 -23 7 -23 21 0 11 -4 20 -10 20 -5 0 -10 -7 -10 -15z"/>
<path d="M196 752 c-3 -6 -15 -8 -26 -5 -20 5 -21 2 -18 -62 2 -44 8 -70 16
-73 8 -3 12 12 12 52 0 46 4 57 21 66 33 18 49 -4 49 -66 0 -30 5 -54 10 -54
6 0 10 19 10 43 0 45 22 87 45 87 21 0 35 -33 35 -84 0 -25 5 -46 10 -46 12 0
13 110 1 129 -8 12 -20 14 -86 11 -11 -1 -32 2 -46 5 -15 4 -29 2 -33 -3z"/>
<path d="M428 753 c-32 -8 -19 -22 19 -20 27 1 38 -2 41 -14 2 -12 -7 -18 -37
-23 -32 -5 -42 -11 -47 -31 -10 -39 11 -55 67 -53 l49 2 0 53 c0 75 -29 103
-92 86z m60 -95 c-3 -25 -43 -37 -61 -19 -15 15 10 41 40 41 20 0 24 -4 21
-22z"/>
<path d="M595 750 c-4 -6 -15 -8 -26 -5 -18 6 -19 1 -19 -65 0 -53 3 -71 12
-68 7 3 14 26 16 54 4 52 15 74 39 74 8 0 11 5 8 10 -8 13 -22 13 -30 0z"/>
<path d="M800 738 c-41 -44 -15 -128 40 -128 33 0 60 9 60 20 0 5 -18 6 -39 3
-32 -4 -41 -2 -50 15 -11 20 -8 21 41 24 63 4 73 23 34 63 -31 31 -59 32 -86
3z m68 -10 c24 -24 13 -38 -28 -38 -43 0 -49 9 -24 34 19 19 36 20 52 4z"/>
<path d="M1141 751 c-8 -5 -20 -7 -28 -4 -10 4 -13 -11 -13 -66 0 -41 4 -71
10 -71 6 0 10 17 10 38 0 54 10 81 32 87 32 11 48 -12 48 -72 0 -38 4 -53 12
-51 20 7 14 119 -8 135 -21 15 -43 16 -63 4z"/>
<path d="M1288 753 c-23 -6 -34 -51 -20 -74 7 -10 8 -21 3 -24 -5 -3 -7 -14
-4 -25 3 -11 0 -20 -6 -20 -19 0 -12 -49 8 -60 31 -16 79 -12 101 10 11 11 20
24 20 29 0 21 -33 41 -67 41 -40 0 -42 23 -2 28 35 5 49 21 49 54 0 17 4 27
10 23 6 -3 10 -1 10 4 0 6 -10 11 -22 11 -13 0 -32 2 -43 4 -11 2 -28 2 -37
-1z m46 -19 c21 -8 21 -50 0 -58 -28 -11 -54 3 -54 29 0 29 22 41 54 29z m21
-149 c0 -15 -8 -21 -34 -23 -38 -4 -57 9 -47 33 4 12 16 15 43 13 30 -2 38 -7
38 -23z"/>
<path d="M1486 739 c-54 -43 -21 -134 46 -127 44 4 45 23 1 23 -31 0 -38 4
-46 28 -14 42 14 81 54 72 34 -8 40 10 7 19 -32 8 -32 8 -62 -15z"/>
<path d="M1682 744 c-17 -12 -22 -25 -22 -58 0 -51 22 -76 67 -76 71 0 96 102
32 135 -36 19 -49 19 -77 -1z m72 -20 c19 -18 21 -65 4 -82 -7 -7 -21 -12 -33
-12 -29 0 -45 19 -45 51 0 29 23 59 45 59 7 0 21 -7 29 -16z"/>
<path d="M1040 680 c0 -40 4 -70 10 -70 6 0 10 30 10 70 0 40 -4 70 -10 70 -6
0 -10 -30 -10 -70z"/>
<path d="M1820 692 c0 -64 11 -82 50 -82 14 0 31 5 38 12 9 9 12 9 12 0 0 -7
5 -12 10 -12 6 0 10 30 10 70 0 40 -4 70 -10 70 -5 0 -10 -22 -10 -48 0 -53
-12 -72 -46 -72 -26 0 -34 17 -34 76 0 24 -4 44 -10 44 -6 0 -10 -26 -10 -58z"/>
</g>
</svg>
